<?xml version="1.0" encoding="utf-8"?>
<!-- Generator: Adobe Adobe Illustrator 24.2.0, SVG Export Plug-In . SVG Version: 6.00 Build 0)  -->
<svg version="1.1" id="Layer_1" xmlns="http://www.w3.org/2000/svg" xmlns:xlink="http://www.w3.org/1999/xlink" x="0px" y="0px"
	 viewBox="0 0 1366 768" style="enable-background:new 0 0 1366 768;" xml:space="preserve">
<style type="text/css">
	.st0{fill:url(#SVGID_1_);}
	.st1{fill:#209AAB;}
	.st2{fill:#85C9BC;}
	.st3{font-family:'AllumiStd-Bold';}
	.st4{font-size:42.8901px;}
	.st5{fill:#1F9BAB;}
	.st6{fill:#BDC7C1;}
</style>
<linearGradient id="SVGID_1_" gradientUnits="userSpaceOnUse" x1="326.0872" y1="50.4541" x2="69.1484" y2="538.1831">
	<stop  offset="0" style="stop-color:#3480A2"/>
	<stop  offset="0.0257" style="stop-color:#3F89A5"/>
	<stop  offset="0.0956" style="stop-color:#569FAE"/>
	<stop  offset="0.1758" style="stop-color:#6AB2B5"/>
	<stop  offset="0.2696" style="stop-color:#79C2BB"/>
	<stop  offset="0.3856" style="stop-color:#84CDBF"/>
	<stop  offset="0.5483" style="stop-color:#8BD3C2"/>
	<stop  offset="1" style="stop-color:#8CD5C2"/>
</linearGradient>
<path class="st0" d="M114.13,419.97c-18.83-87.63-20.41-144.23,19.59-187.48c16.61-17.96,43.46-32.6,67.22-23.84
	c29.19,10.76,41.37,43.85,88.44,43.85c33.35,0,46.11-25.19,83.72-40.28c9.59-3.85,17.14-6.49,23.67-5.56
	c16.58,2.37,25.11-5.44,27.81-15.47c2.57-9.58-1.42-23.14-27.27-24.39c-50.19-2.42-66.75,25.68-110.72,25.68
	c-42.66,0-37.59-45.63-90.25-52.62c-49.6-6.59-97.82,16.12-124.61,50.85c-29.3,37.97-33.37,96.22-28.4,141.06
	c8.96,80.99,50.94,175.61,88.38,224.97c32.25,42.52,58.93,61.45,66.49,63.4c8.17,2.11,13.58-2.4,11.27-5
	C159.59,559.16,129.27,490.4,114.13,419.97z"/>
<g>
	<path class="st1" d="M453.79,246.25c6.57,16.03,32.69,14.85,41.26,10.08c8.71-4.85,19.14-14.09,9.52-30.12
		c-0.24-0.41-8.28-17.39-26.42-31.2c-11.54-8.79-24.34-7.08-31.34,1.66c-5.33,6.64-11.37,20.89-2.72,35.91
		C448.22,237.13,452.2,242.37,453.79,246.25z"/>
	<path class="st1" d="M494.2,268.45c-8.74,0-28.64,6.28-27.75,21.28c1.69,28.67-7.59,69.72-44.5,134.62
		c-11.81,20.77-33.39,52.81-70.93,13.1c-13.94-14.75-36.84-22.09-59.4-19.1c-47.37,6.28-70.02,42.28-74.31,84.7
		c-0.44,4.32-0.3,8.55,0.16,12.47c0.69,5.85,8.07,18.78,9.11,12.96c3.84-21.47,18.03-48.59,28.09-60.14
		c8.3-9.53,19.84-18.91,34.2-19.06c16.81-0.18,29.52,12.21,37.48,24.27c26.03,39.44,29.41,85.72,36.12,130.15
		c1.07,7.07,2.33,14.38,8.24,20.02c2.61,2.5,6.1,4.36,10.05,5c7.7,1.25,21.43-0.7,29.75-14.41
		c64.29-106.06,97.01-202.42,109.19-252.53c5.38-22.15,9.92-46.29,5.94-68.71C521.74,271.07,505.93,268.45,494.2,268.45z"/>
</g>
<text transform="matrix(1 0 0 1.33 541.6567 616.3743)" class="st2 st3 st4">¡Un concepto nuevo en odontología!</text>
<path class="st1" d="M603.81,280.69c-6.94,6.77-18.39,0.81-16.81-8.75c2.52-15.33,7.71-31.11,17.86-40.66
	c9.51-8.95,25.5-12.92,35.86-4.96c13.89,10.67,14.48,31.5-16.42,40.96C617.09,269.49,609.97,274.69,603.81,280.69z"/>
<g>
	<path class="st1" d="M647.09,363.66c-4.29-30.15-11.76-44.07-26.54-58.85c-14.73-14.73-48.71-16.67-67.99,8.79
		c-14.52,19.17-28.62,60.52-23.03,90.33c6.07,32.36,16.56,46.58,34.63,52.93c14.8,5.2,39.7,3.3,48.1-13.97
		c5.95-12.24,10.57-19.32,15.62-13.85c5.02,5.43,3.03,15.39,7.51,21.27C642.08,459.11,654.56,416.16,647.09,363.66z M614.49,391.87
		c-2.46,1.96-5.83-1.77-8.95-1.34c-2.09,0.29-3.41,2.34-4.38,4.21c-2.73,5.26-5.08,10.83-9.09,15.2c-4,4.37-10.21,7.34-15.88,5.62
		c-4.88-1.48-8.27-6.16-9.54-11.1c-1.26-4.94-2.59-13.05-1.8-22.54c1.24-14.89,9.04-34.75,21.05-37.96
		c5.33-1.42,11.15,0.65,15.36,4.21c4.21,3.56,7.03,8.5,9.15,13.59c3.44,8.27,5.26,17.21,5.31,26.16
		C615.74,389.34,615.61,390.97,614.49,391.87z"/>
</g>
<path class="st1" d="M795.04,306.35c0.68-0.58,1.48-1.07,2.36-1.16c2.14-0.21,3.67,1.89,4.96,3.61s3.52,3.44,5.36,2.34
	c0.6-0.36,1-0.96,1.41-1.53c7.14-9.95,19.78-14.42,31.94-15.84c15.07-1.76,34.33,0.85,43.56,19.81c3.89,8,4.63,17.48,2.02,25.98
	c-5.65,18.42-17.26,14.18-28.43,8.19c-18.07-9.68-29.53-1.55-35.04,9.24c-6.44,12.6-14.38,58.89-6.39,96.65
	c1.99,9.39-9.87,3.57-11.86,1.55c-13.47-13.78-25.09-60.43-20.79-110.47C786.3,319.4,791.49,309.36,795.04,306.35z"/>
<g>
	<path class="st1" d="M963.43,297.16c-19.13-8.26-51.34-3.78-63.54,25.74c-9.19,22.22-12.34,65.8,0.62,93.21
		c14.08,29.77,27.86,40.53,46.92,42.42c24.36,2.41,49.78-34.05,47.63-52.91c-0.75-6.58-8.91,1.3-21.33,14.38
		c-11.98,12.61-30.16,3.03-38.55-12.11c-1.09-1.96-10.71-23.97,4.84-22.17c11.15,1.29,15.05,2.76,26.28,2.45
		c19.42-0.55,29.91-15.79,32.6-28.05C1002.88,341.92,994.53,310.59,963.43,297.16z M965.86,355.1c-5.39,2.54-17.1,3.88-25.9,1.16
		c-4.63-1.43-7.71-5.8-7.62-10.64c0.18-9.66,4.38-17.43,14-20.35c12.36-3.75,20.76,3.97,24.05,10.04
		C974.4,342.69,973.11,351.69,965.86,355.1z"/>
</g>
<g>
	<path class="st1" d="M775.5,349.49c-5.58-29.74-16.92-38.44-25.1-38.44c-11.31,0-12.9,10.96-12.03,24.66
		c0.73,11.6,2.94,24.62,1.8,35.78c-1.52,14.86-9.21,34.16-21.05,37.96c-22.7,7.29-34.12-26.45-37.7-44.76
		c-5.1-26.13-6.06-58.91-11.78-61.59c-5.39-2.53-19.18,34.14-11.7,86.65c4.29,30.15,11.76,44.07,26.54,58.85
		c14.73,14.73,48.71,16.67,67.99-8.79C766.99,420.65,781.09,379.29,775.5,349.49z"/>
</g>
<g>
	<path class="st1" d="M1253.51,348.78c-5.58-29.74-16.92-38.44-25.1-38.44c-11.31,0-12.9,10.96-12.03,24.66
		c0.73,11.6,2.94,24.62,1.8,35.78c-1.52,14.86-9.21,34.16-21.05,37.96c-22.7,7.29-34.12-26.45-37.7-44.76
		c-5.1-26.13-6.06-58.91-11.78-61.59c-5.39-2.53-19.18,34.14-11.7,86.65c4.29,30.15,11.76,44.07,26.54,58.85
		c14.73,14.73,48.71,16.67,67.99-8.79C1245,419.93,1259.11,378.58,1253.51,348.78z"/>
</g>
<path class="st5" d="M1126.82,381.79c-6.1-22.35-16.65-32.17-34.8-36.56c-5.54-1.34-22.05-2.64-35.95,14.62
	c-9.4,11.67-2.61,19.48,1.45,18.55c6.63-1.51,25.94-13.23,31.98,3.02c1.27,3.41,2.61,9.01,1.81,15.57
	c-3.24,26.7-27.14,29.52-37.89,25.27c-10.52-4.17-23.99-23.85-15.99-58.54c2.26-9.78,6.18-60.39,72.28-29
	c11.87,5.64,9.23-16.2-6.1-28.07c-18.34-14.2-57.41-16.27-75.78,3.91c-16.3,17.9-28.34,58.86-19.15,99.04
	c4.75,20.78,11.82,30.44,26.67,40.65c14.8,10.18,48.95,11.51,68.33-6.07C1118.27,430.94,1132.44,402.38,1126.82,381.79z"/>
<g>
	<g>
		<path class="st1" d="M1269.03,356.15c-6.32-17.41-9.47-33.61-6.32-41.83c5.26-13.71,13.7-8.78,21.22-4.65
			c0.29,0.41,5.11,4.18,9.78,0.78c5.28-3.84,5.81-3.44,7.46-1.79c3.26,3.26,7.56,13.58,7.59,38.7
			c0.05,49.64-15.38,94.59-29.88,107.02c-2.13,1.83-14.37,6.55-11.62-2.52C1278.33,415.35,1274.8,372.04,1269.03,356.15z"/>
	</g>
	
		<ellipse transform="matrix(0.085 -0.9964 0.9964 0.085 891.6093 1527.8005)" class="st1" cx="1277.63" cy="278.45" rx="19.86" ry="19.99"/>
</g>
<path class="st6" d="M1306.76,488.01h12.71c1.79,0,2.78,1.52,3.25,3.25c2.61,9.73,2.08,26.52,0,38.04
	c-0.32,1.77-1.45,3.25-3.25,3.25h-12.56c-1.79,0-3.25-1.45-3.25-3.25l0,0c0-2.22-1.84-3.93-4.06-3.93c-4.25,0-9.2,0.07-11.42,0.07
	c-1.09,0-1.56,0.19-1.59,0.96c-0.08,1.73-2.84,2.35-4.98,2.36c-3.77,0.01-8.86,0.02-11.79,0.02c-1.21,0-2.2,0.95-2.27,2.16
	c-0.14,2.43,0.38,6.65-3.19,6.65c-0.13,0-198.36,0-198.36,0v-50.9h217.05c1.32,0,2.4,1.08,2.4,2.4v0.03c0,3.99-0.17,5.93,2,5.93
	c4.36,0.03,8.1-0.02,12.28-0.03c2.17,0,3.93-1.76,3.93-3.93l0,0C1303.67,489.4,1305.05,488.01,1306.76,488.01z"/>
<path class="st5" d="M1037.46,548.86v-70.02c0-2.24,1.81-4.05,4.05-4.05h30c2.24,0,4.05,1.81,4.05,4.05v70.02
	c0,2.24-1.81,4.05-4.05,4.05h-30C1039.27,552.91,1037.46,551.1,1037.46,548.86z"/>
<path class="st5" d="M747.25,510.48c0,0,0.84,0.3,2.36,0.79c0.12-0.07,0.24-0.14,0.37-0.21
	C748.23,510.72,747.25,510.48,747.25,510.48z"/>
<g>
	<path class="st6" d="M805.6,512.15c13.8-4.18,35.26-7.01,52.08-8.74c-26.31,0.62-39.36-6.17-58.83-4.69
		c-6.88,0.52-39.97,9.58-48.88,14.58C758.14,514.91,783.33,518.89,805.6,512.15z"/>
	<g>
		<path class="st5" d="M878.24,501.61c-4.53,0.33-11.93,0.92-20.56,1.81c-16.82,1.72-38.29,4.56-52.08,8.74
			c-22.27,6.74-47.46,2.76-55.63,1.16c-0.13,0.07-0.25,0.14-0.37,0.21c2.49,0.81,6.83,2.15,12.37,3.58
			c14.01,3.62,35.67,7.82,54.42,5.44c10.82-1.37,18.45-3.25,24.4-5.33c16.41-5.75,19.97-13.1,42.18-15.93
			C882.98,501.28,881.24,501.39,878.24,501.61z"/>
	</g>
</g>
<g>
	<path class="st6" d="M721.94,512c11.47-3.68,29.31-6.18,43.3-7.7c-21.88,0.55-32.73-5.44-48.91-4.13
		c-5.72,0.46-33.23,8.45-40.65,12.86C682.48,514.44,703.43,517.94,721.94,512z"/>
	<g>
		<path class="st5" d="M765.25,504.3c-14.03,1.07-31.83,4.02-43.3,7.7c-18.52,5.94-39.47,2.44-46.26,1.02
			c-0.11,0.06-0.21,0.13-0.31,0.19c2.07,0.72,5.68,1.9,10.28,3.16c11.65,3.2,29.66,6.9,45.25,4.79c9-1.21,15.43-2.64,20.29-4.7
			c21.54-9.17,20.31-9.04,33.74-14.76C784.98,501.69,773.42,503.67,765.25,504.3z"/>
	</g>
</g>
<g>
	<path class="st6" d="M655.25,511.77c9.09-2.92,23.23-4.9,34.32-6.1c-17.34,0.43-25.94-4.31-38.76-3.28
		c-4.53,0.37-26.33,6.7-32.21,10.19C623.97,513.7,640.57,516.48,655.25,511.77z"/>
	<g>
		<path class="st5" d="M702.16,503.45c-2.9,0.75-6.91,1.6-12.59,2.22c-11.09,1.21-25.23,3.19-34.32,6.1
			c-14.67,4.71-31.27,1.93-36.66,0.81c-0.08,0.05-0.17,0.1-0.24,0.15c1.64,0.57,4.5,1.5,8.15,2.51c9.23,2.53,23.5,5.46,35.86,3.8
			c7.13-0.96,12.16-2.27,16.08-3.73C689.25,511.28,703.95,502.98,702.16,503.45z"/>
	</g>
</g>
<g>
	<path class="st6" d="M602,511.65c7.86-2.52,20.08-4.24,29.67-5.28c-14.99,0.37-22.42-3.73-33.51-2.83
		c-3.92,0.32-22.77,5.79-27.85,8.81C574.97,513.32,589.32,515.72,602,511.65z"/>
	<g>
		<path class="st5" d="M642.19,504.32c0.09-0.06-5.61,1.51-10.52,2.05c-9.58,1.04-21.81,2.75-29.67,5.28
			c-12.69,4.07-27.04,1.67-31.69,0.7c-0.07,0.04-0.14,0.09-0.21,0.13c1.42,0.49,3.89,1.3,7.05,2.17c7.98,2.19,20.32,4.72,31,3.28
			c6.16-0.83,10.51-1.96,13.9-3.22C631.4,511.23,637.32,507.69,642.19,504.32z"/>
	</g>
</g>
<g>
	<path class="st6" d="M553.51,511.47c6.06-1.95,15.49-3.27,22.88-4.07c-11.56,0.29-17.29-2.88-25.84-2.18
		c-3.02,0.24-17.56,4.46-21.48,6.79C532.65,512.76,543.72,514.61,553.51,511.47z"/>
	<g>
		<path class="st5" d="M585.61,506.65c0.04-0.02-5.43,0.34-9.22,0.75c-7.39,0.8-16.82,2.12-22.88,4.07
			c-9.78,3.14-20.85,1.29-24.44,0.54c-0.06,0.03-0.11,0.07-0.16,0.1c1.1,0.38,3,1,5.43,1.67c6.15,1.69,15.67,3.64,23.91,2.53
			c4.75-0.64,8.11-1.51,10.72-2.49C576.18,511.15,582.4,508.47,585.61,506.65z"/>
	</g>
</g>
<g>
	<path class="st6" d="M512.54,511.47c6.06-1.95,15.49-3.27,22.88-4.07c-11.56,0.29-17.29-2.88-25.84-2.18
		c-3.02,0.24-17.56,4.46-21.48,6.79C491.69,512.76,502.76,514.61,512.54,511.47z"/>
	<g>
		<path class="st5" d="M544.45,506.56c0.01,0-5.24,0.43-9.03,0.84c-7.39,0.8-16.82,2.12-22.88,4.07
			c-9.78,3.14-20.85,1.29-24.44,0.54c-0.06,0.03-0.11,0.07-0.16,0.1c1.1,0.38,3,1,5.43,1.67c6.15,1.69,15.67,3.64,23.91,2.53
			c4.75-0.64,8.11-1.51,10.72-2.49C535.21,511.15,541.79,507.55,544.45,506.56z"/>
	</g>
</g>
<rect x="1201.4" y="486.7" class="st5" width="41.92" height="50.9"/>
<path class="st6" d="M880.45,501.28c-0.75,0.12-1.47,0.22-2.21,0.32c2.99-0.22,4.73-0.32,4.73-0.32
	c-22.22,2.82-25.77,10.17-42.18,15.93c17.31,3.46,42.38,5.49,68.85,6.65v-25.39C899.9,498.79,891.12,499.61,880.45,501.28z"/>
<path class="st6" d="M960.33,498.97v26.17c14.84,0.15,28.8,0.12,40.66,0.03v-25.54C984.9,499.46,971.61,499.21,960.33,498.97z"/>
<path class="st6" d="M937.82,498.49v26.29c5.23,0.12,10.42,0.21,15.54,0.28v-26.24C947.67,498.7,942.54,498.58,937.82,498.49z"/>
<path class="st6" d="M1037.46,499.8c-10.73,0-20.52-0.04-29.49-0.12v25.41c17.88-0.2,29.49-0.53,29.49-0.53
	S1038.51,499.8,1037.46,499.8z"/>
<path class="st6" d="M916.62,498.32v25.82c4.72,0.18,9.47,0.33,14.22,0.46v-26.23C925.67,498.3,921,498.27,916.62,498.32z"/>
<path class="st5" d="M930.84,498.37v26.23c2.33,0.06,4.66,0.12,6.98,0.17v-26.29C935.39,498.44,933.06,498.4,930.84,498.37z"/>
<path class="st5" d="M909.65,498.47v25.39c2.32,0.1,4.64,0.2,6.98,0.28v-25.82C914.22,498.34,911.91,498.39,909.65,498.47z"/>
<path class="st5" d="M953.35,498.82v26.24c2.34,0.03,4.67,0.06,6.98,0.08v-26.17C957.92,498.92,955.59,498.87,953.35,498.82z"/>
<path class="st5" d="M1000.99,499.63v25.54c2.42-0.02,4.74-0.04,6.98-0.07v-25.41C1005.58,499.67,1003.25,499.65,1000.99,499.63z"/>
</svg>
